# xmcd
#
# Track frame offsets:
#	150
#	14986
#	28281
#	42602
#	61226
#
# Disc length: 993 seconds
#
# Revision: 1
# Processed by: cddbd v1.5.2PL0 Copyright (c) Steve Scherf et al.
# Submitted via: audiograbber 1.83.01
#
DISCID=4803df05
DTITLE=Maose - Bonsai Report
DYEAR=2010
DGENRE=Indie
TTITLE0=Sun o o o
TTITLE1=Turning Five Dices
TTITLE2=Canvas
TTITLE3=Bagel and Regret
TTITLE4=Second State
EXTD=
EXTT0=
EXTT1=
EXTT2=
EXTT3=
EXTT4=
PLAYORDER=
